<svg width="571" height="512" viewBox="0 0 571 512" fill="none" xmlns="http://www.w3.org/2000/svg">
<g clip-path="url(#clip0)">
<path d="M210.051 0C188.844 0 190.864 19.1874 190.864 19.1874V170.667C190.864 177.736 197.933 190.864 211.061 190.864H272.663V238.327H95.9369C81.7988 238.327 75.7396 245.396 75.7396 252.465V321.136H20.1972C6.05917 321.136 0 335.274 0 341.333V491.803C0 498.872 7.06903 512 20.1972 512H165.617C172.686 512 185.815 504.931 185.815 491.803V341.333C185.815 334.264 178.746 321.136 165.617 321.136H106.035V272.663H471.605V320.126H410.004C402.935 320.126 389.807 327.195 389.807 340.323V490.793C389.807 497.862 396.876 510.99 410.004 510.99H550.375C557.444 510.99 570.572 503.921 570.572 490.793V340.323C570.572 333.254 563.503 320.126 550.375 320.126H498.872V252.465C498.872 245.396 491.803 238.327 484.734 238.327H306.998V190.864H368.6C375.669 190.864 388.797 183.795 388.797 170.667V20.1972C388.797 13.1282 381.728 0 368.6 0C368.6 0 230.248 0 210.051 0ZM232.268 41.4043H348.402V157.538H232.268V41.4043ZM34.3353 361.531H150.469V477.665H34.3353V361.531ZM423.132 355.471H539.266V471.606H423.132V355.471Z" fill="#4E1F98"/>
</g>
<defs>
<clipPath id="clip0">
<rect width="570.572" height="512" fill="white"/>
</clipPath>
</defs>
</svg>
